<svg xmlns="http://www.w3.org/2000/svg" id="Página_3" viewBox="0 0 1556.71 471.78"><polygon points="220.46 207.79 266.9 207.79 266.89 238.62 220.46 238.6 220.46 265.22 287.03 265.19 287.03 295.98 187.65 295.98 187.65 156.05 287.29 156.05 287.29 186.85 220.46 186.85 220.46 207.79" style="fill:#000; fill-rule:evenodd; stroke-width:0px;"></polygon><path d="M322.11,183.15h31.93s19.24-.82,19.86,12.01c.62,12.83.44,55.13.44,55.13,0,0,1.18,17.47-14.78,18.28-15.96.83-37.02.55-37.02.55l-.42-85.97ZM371.26,156.53c1.83.25,3.67.6,5.48,1.05,10.58,2.64,21.15,9.05,25.36,19.79.88,2.25,1.54,4.49,1.74,5.62h0c.12.7.28,3.1.45,5.96.29,5.08.59,11.8.61,12.63h.45s.25,33.58.25,33.58c.17,4.91.03,10.44-.27,15.6-.38,6.75-1.02,12.91-1.54,16.36-.25,1.63-.6,3.22-1.05,4.75-3.26,11.11-11.74,18.81-22.85,22.16l-.13.04h-.01l-.09.03h-.06s-.08.03-.08.03l-.2.03-.16.02h-.09s0,0,0,0l-12.92,1.73h-.09s-.03.01-.03.01l-.24.03h-.09s-1.23.01-1.23.01h0s-64.55-.04-64.55-.04v.02s-7.32,0-7.32,0v-1.17s-.01-3.11-.01-3.11v-131.21s0-1.39,0-1.39v-2.18s.01-.82.01-.82h14.18s56.56,0,56.56,0v-.02h1c.48,0,1.05.01,1.68.04.59.02,1.16.06,1.71.08h.07c.53.04,1.09.09,1.68.16.59.06,1.19.13,1.78.21h0Z" style="fill:#000; fill-rule:evenodd; stroke-width:0px;"></path><path d="M805.24,197.41c3.62-3.58,7.95-6.47,12.76-8.45,4.62-1.87,9.71-2.91,15.08-2.9l.37-.02h.12l3.39.19,3.33.45.3.04h.13c4.11.79,7.98,2.18,11.51,4.08,3.66,1.96,6.97,4.47,9.84,7.41,2.86,2.92,5.27,6.26,7.12,9.88,1.82,3.55,3.14,7.39,3.84,11.38l.44,3.52.15,3.52v2.35h-.08c-.27,4.54-1.29,8.88-2.95,12.88-1.99,4.81-4.92,9.15-8.56,12.76-3.63,3.62-7.98,6.53-12.81,8.52-4.66,1.91-9.81,2.97-15.22,2.97l-3.47-.17-3.54-.48c-4.11-.73-8.02-2.08-11.62-3.96-3.7-1.93-7.07-4.42-9.98-7.34-2.93-2.93-5.4-6.29-7.31-9.97-1.85-3.57-3.19-7.46-3.91-11.57l-.45-3.57-.13-3.64c.03-5.37,1.13-10.51,3.09-15.17,2.01-4.8,4.95-9.12,8.58-12.73M805.6,160.02c8.33-3.45,17.48-5.37,27.1-5.39,2.04,0,3.99.07,5.84.22,1.93.16,3.89.4,5.82.71,7.31,1.21,14.33,3.55,20.83,6.85,6.61,3.36,12.7,7.72,18,12.89,5.36,5.22,9.93,11.28,13.49,18,3.42,6.45,5.91,13.55,7.26,21.1.38,2.11.66,4.18.84,6.19.19,2.04.29,4.13.3,6.28v.27s-.01.1-.01.1c-.09,9.54-2.01,18.6-5.42,26.83-3.58,8.62-8.79,16.37-15.26,22.83-6.47,6.46-14.2,11.67-22.81,15.2-8.33,3.42-17.49,5.31-27.11,5.32-2.13,0-4.22-.09-6.28-.26-2.1-.18-4.16-.45-6.18-.8l-2.72-.47v-.06c-6.49-1.39-12.63-3.65-18.3-6.63-6.71-3.52-12.76-8.06-17.98-13.37-5.15-5.23-9.49-11.23-12.86-17.74-3.31-6.4-5.67-13.33-6.94-20.55-.35-2.02-.63-4.08-.81-6.17-.18-2.16-.28-4.23-.28-6.2l.02-2.66h.06c.34-8.64,2.21-16.86,5.33-24.4,3.56-8.59,8.78-16.33,15.25-22.82,6.47-6.47,14.2-11.69,22.82-15.26Z" style="fill:#000; fill-rule:evenodd; stroke-width:0px;"></path><polygon points="442.49 207.79 488.92 207.79 488.92 238.62 442.48 238.6 442.49 265.22 509.06 265.19 509.06 295.98 409.68 295.93 409.68 156.05 509.32 156.05 509.32 186.85 442.49 186.85 442.49 207.79" style="fill:#000; fill-rule:evenodd; stroke-width:0px;"></polygon><path d="M534.71,186.85v-30.8h99.65v30.8h-99.65ZM567.52,207.79h46.44v30.83l-46.44-.02v57.38l-32.8-.05v-88.14h32.8Z" style="fill:#000; fill-rule:evenodd; stroke-width:0px;"></path><polygon points="1001.76 156.05 1001.76 186.74 966.39 186.74 966.4 292.03 966.4 293.45 966.39 295.98 962.4 295.98 962.4 295.96 939.28 295.96 939.28 295.96 933.58 295.96 933.59 292.4 933.59 290.37 933.63 186.74 899.02 186.74 899.03 156.05 1001.77 156.05 1001.76 156.05" style="fill:#000; fill-rule:evenodd; stroke-width:0px;"></polygon><path d="M1034.65,234.14h34.24s-17.56-43.6-17.56-43.6l-16.68,43.6ZM1131.9,295.92l-38.44-.02-14.85-37.35h-53.46l-14.3,37.43h-38.41l60.86-139.93h35.59l63,139.86Z" style="fill:#000; fill-rule:evenodd; stroke-width:0px;"></path><path d="M731.9,242.53l39.16,45.98,2.35,2.71,4.11,4.75h-40.2l-1.15-1.43-.66-.81-43.41-55.11h-17.6l-.06,53.41v1.43s0,2.51,0,2.51h-33.96v-57.35s0,0,0,0v-30.83h87.04v-20.94h-87.02v-26.8s0-1.43,0-1.43v-2.51h4s69.43-.04,69.43-.04v-.02s3.03,0,3.03,0c3.84,0,7.46.48,10.84,1.36,3.59.94,6.87,2.34,9.82,4.09,3.46,2.05,6.47,4.61,9.02,7.51,2.66,3.02,4.82,6.42,6.48,10.06,1.56,3.42,3.33,8.03,4,11.79.66,3.75,1.35,7.6,1.1,11.41-.32,4.95-1.42,9.86-3.31,14.42-5.8,13.96-12.24,17.25-23.02,25.83" style="fill:#000; fill-rule:evenodd; stroke-width:0px;"></path><path d="M149.74,242.53l39.17,45.98,2.35,2.71,4.11,4.75h-40.21l-1.15-1.43-.66-.81-43.41-55.11h-17.6l-.06,53.41v3.94h-33.96v-5.58s0-51.77,0-51.77h-.01v-30.83h87.05v-20.94H58.35v-28.22s.01-2.51.01-2.51h3.99s69.43-.04,69.43-.04v-.02h3.03c3.84,0,7.46.48,10.83,1.36,3.6.94,6.88,2.34,9.82,4.09,3.45,2.05,6.47,4.61,9.02,7.51,2.66,3.02,4.82,6.42,6.48,10.06,1.56,3.42,3.33,8.03,4,11.79.66,3.75,1.35,7.6,1.1,11.41-.32,4.95-1.42,9.86-3.31,14.42-5.8,13.96-12.24,17.25-23.02,25.83" style="fill:#000; fill-rule:evenodd; stroke-width:0px;"></path><path d="M1337.1,105.54c65.65,0,118.89,53.24,118.89,118.9s-53.24,118.89-118.89,118.89-118.9-53.24-118.9-118.89,53.24-118.9,118.9-118.9M1337.1,67.29c86.79,0,157.15,70.35,157.15,157.15s-70.36,157.15-157.15,157.15-157.16-70.36-157.16-157.15,70.36-157.15,157.16-157.15Z" style="fill:#e52a2d; fill-rule:evenodd; stroke-width:0px;"></path><path d="M1349.01,194.02v-23.91h77.38v23.91h-77.38ZM1318.8,237.27l30.21,35.47v-62.45h61.54v23.94s-36.06-.02-36.06-.02v44.56h-51.48c-11.82-14.73-23.42-29.7-35.12-44.54h-13.66l-.06,44.54h-26.37v-68.48h67.6v-16.26h-67.58l.02-23.86,57.01-.03c3.81-.03,7.01.05,10.77,1.04,2.79.73,5.34,1.81,7.63,3.17,2.68,1.6,5.02,3.58,7.01,5.83,2.06,2.35,3.74,4.99,5.03,7.82,1.22,2.66,2.59,6.24,3.1,9.16.51,2.9,1.05,5.9.86,8.86-.25,3.84-1.1,7.65-2.58,11.19-4.5,10.84-9.5,13.4-17.87,20.06Z" style="fill:#e52a2d; fill-rule:evenodd; stroke-width:0px;"></path></svg>