<?xml version="1.0"?>

<svg version="1.1" id="Camada_1" xmlns="http://www.w3.org/2000/svg" xmlns:xlink="http://www.w3.org/1999/xlink" x="0px" y="0px" viewBox="0 0 211.72 59.31" style="enable-background:new 0 0 211.72 59.31;" xml:space="preserve">

<g>
&#x9;<path class="st0" d="M109.99,19.43h1.33c0.15,0,0.29,0.04,0.41,0.12c0.12,0.07,0.21,0.18,0.27,0.31c0,0,0.01,0.01,0.01,0.01&#xA;&#x9;&#x9;l10.21,21.93l0,0l0,0c0.06,0.12,0.08,0.25,0.07,0.37c-0.01,0.12-0.05,0.25-0.12,0.36c-0.07,0.11-0.17,0.2-0.27,0.26&#xA;&#x9;&#x9;c-0.11,0.06-0.24,0.09-0.37,0.09h-3.28c-0.15,0-0.29-0.04-0.41-0.12c-0.11-0.07-0.21-0.18-0.27-0.31c0-0.01-0.01-0.01-0.01-0.02&#xA;&#x9;&#x9;l-2.73-6.02l0,0l0,0c-0.02-0.05-0.05-0.08-0.09-0.11c-0.04-0.02-0.09-0.04-0.14-0.04h-4.6h-4.6c-0.05,0-0.1,0.01-0.14,0.04&#xA;&#x9;&#x9;c-0.04,0.02-0.07,0.06-0.09,0.1c0,0,0,0.01,0,0.01l-2.73,6.03c-0.06,0.14-0.16,0.25-0.28,0.33c-0.12,0.08-0.26,0.12-0.41,0.12&#xA;&#x9;&#x9;h-3.24c-0.13,0-0.26-0.03-0.37-0.09c-0.1-0.06-0.19-0.14-0.26-0.24c0,0-0.01-0.01-0.01-0.02c-0.07-0.11-0.11-0.23-0.12-0.35&#xA;&#x9;&#x9;c0,0,0,0,0-0.01c-0.01-0.13,0.02-0.25,0.07-0.37L108,19.87c0.06-0.14,0.16-0.25,0.28-0.32c0.12-0.08,0.26-0.12,0.41-0.12H109.99z&#xA;&#x9;&#x9; M111.32,19.93h-1.33h-1.3c-0.05,0-0.1,0.01-0.14,0.04c-0.04,0.02-0.07,0.06-0.09,0.11l-10.2,21.93c-0.02,0.04-0.03,0.08-0.03,0.12&#xA;&#x9;&#x9;l0,0c0,0.04,0.02,0.08,0.04,0.11c0,0,0,0.01,0.01,0.01c0.02,0.03,0.05,0.06,0.08,0.08c0.03,0.02,0.08,0.03,0.12,0.03h3.24&#xA;&#x9;&#x9;c0.05,0,0.1-0.01,0.14-0.04c0.04-0.02,0.07-0.06,0.09-0.11l2.73-6.03c0-0.01,0.01-0.01,0.01-0.02c0.06-0.13,0.16-0.24,0.27-0.31&#xA;&#x9;&#x9;c0.12-0.08,0.26-0.12,0.41-0.12h4.6h4.6c0.15,0,0.29,0.04,0.41,0.12c0.12,0.08,0.22,0.19,0.28,0.33l0,0l2.73,6.02&#xA;&#x9;&#x9;c0,0,0,0.01,0,0.01c0.02,0.04,0.05,0.08,0.09,0.1c0.04,0.02,0.09,0.04,0.14,0.04h3.28c0.05,0,0.09-0.01,0.12-0.03&#xA;&#x9;&#x9;c0.04-0.02,0.07-0.05,0.09-0.09c0.02-0.04,0.04-0.08,0.04-0.12c0-0.04-0.01-0.08-0.02-0.13l0,0l-10.21-21.93c0,0,0-0.01,0-0.01&#xA;&#x9;&#x9;c-0.02-0.04-0.05-0.08-0.09-0.1C111.42,19.95,111.37,19.93,111.32,19.93z M109.75,25.21L107.12,32l0,0&#xA;&#x9;&#x9;c-0.02,0.05-0.03,0.09-0.02,0.14c0,0.04,0.01,0.07,0.03,0.1c0,0,0.01,0.01,0.01,0.01c0.02,0.04,0.05,0.06,0.09,0.08&#xA;&#x9;&#x9;c0.03,0.02,0.08,0.03,0.12,0.03h5.28c0.05,0,0.09-0.01,0.12-0.03c0.03-0.02,0.07-0.05,0.09-0.09c0.02-0.04,0.04-0.07,0.04-0.11&#xA;&#x9;&#x9;c0-0.04,0-0.09-0.02-0.14l-2.65-6.79l0,0l0,0c-0.02-0.04-0.05-0.08-0.08-0.1c-0.04-0.03-0.09-0.04-0.15-0.04&#xA;&#x9;&#x9;c-0.06,0-0.11,0.01-0.15,0.04C109.8,25.13,109.77,25.17,109.75,25.21z M106.65,31.81l2.63-6.79c0.06-0.15,0.15-0.26,0.28-0.34&#xA;&#x9;&#x9;c0.12-0.08,0.27-0.13,0.42-0.13c0.15,0,0.3,0.04,0.43,0.12c0.12,0.08,0.22,0.2,0.28,0.34l0,0l2.65,6.79&#xA;&#x9;&#x9;c0.05,0.12,0.07,0.24,0.06,0.36c-0.01,0.12-0.05,0.24-0.12,0.35c-0.07,0.11-0.17,0.2-0.28,0.26c-0.11,0.06-0.23,0.09-0.36,0.09&#xA;&#x9;&#x9;h-5.28c-0.13,0-0.25-0.03-0.36-0.09c-0.11-0.06-0.2-0.15-0.27-0.26c0,0-0.01-0.01-0.01-0.01c-0.07-0.1-0.1-0.22-0.11-0.33&#xA;&#x9;&#x9;C106.58,32.06,106.6,31.93,106.65,31.81L106.65,31.81L106.65,31.81z"></path>
&#x9;<path class="st1" d="M111.32,19.68h-1.33h-1.3c-0.2,0-0.38,0.11-0.46,0.29L98.03,41.9c-0.08,0.16-0.06,0.34,0.03,0.49&#xA;&#x9;&#x9;c0.1,0.15,0.25,0.24,0.43,0.24h3.24c0.2,0,0.38-0.11,0.46-0.3l2.73-6.03c0.08-0.19,0.26-0.3,0.46-0.3h4.6h4.6&#xA;&#x9;&#x9;c0.2,0,0.38,0.11,0.46,0.3l2.73,6.02c0.09,0.19,0.26,0.3,0.46,0.3h3.28c0.18,0,0.33-0.08,0.43-0.24c0.1-0.15,0.11-0.33,0.03-0.49&#xA;&#x9;&#x9;l-10.21-21.93C111.69,19.79,111.52,19.68,111.32,19.68 M106.88,31.9l2.63-6.79c0.07-0.19,0.26-0.31,0.47-0.31&#xA;&#x9;&#x9;c0.21,0,0.39,0.11,0.47,0.3l2.65,6.79c0.06,0.16,0.06,0.33-0.04,0.48c-0.1,0.15-0.25,0.23-0.43,0.23h-5.28&#xA;&#x9;&#x9;c-0.18,0-0.33-0.08-0.42-0.23C106.83,32.24,106.82,32.07,106.88,31.9z"></path>
&#x9;<path class="st0" d="M201.49,15.49l-2.4,1.74c-0.07,0.05-0.14,0.08-0.21,0.11c-0.08,0.02-0.15,0.04-0.23,0.04h-0.81h-1.25&#xA;&#x9;&#x9;c-0.15,0-0.3-0.05-0.42-0.13c-0.12-0.08-0.21-0.19-0.27-0.32c0-0.01-0.01-0.01-0.01-0.02c-0.06-0.14-0.08-0.3-0.05-0.44&#xA;&#x9;&#x9;c0.03-0.14,0.1-0.28,0.21-0.39l1.61-1.62l0.12-0.12c0.07-0.07,0.16-0.13,0.25-0.17c0.09-0.04,0.19-0.06,0.29-0.06h2.73&#xA;&#x9;&#x9;c0.17,0,0.32,0.05,0.45,0.15c0.12,0.09,0.22,0.22,0.27,0.37c0,0,0,0.01,0.01,0.01c0.05,0.16,0.05,0.32,0,0.47&#xA;&#x9;&#x9;c-0.05,0.14-0.14,0.27-0.26,0.37C201.51,15.48,201.5,15.48,201.49,15.49 M198.79,16.82l2.4-1.74c0,0,0.01,0,0.01-0.01&#xA;&#x9;&#x9;c0.04-0.03,0.07-0.07,0.08-0.12c0.02-0.05,0.02-0.1,0-0.16c0,0,0-0.01,0-0.01c-0.02-0.05-0.05-0.09-0.09-0.12&#xA;&#x9;&#x9;c-0.04-0.03-0.09-0.05-0.15-0.05h-2.73c-0.04,0-0.07,0.01-0.1,0.02c-0.03,0.01-0.06,0.03-0.08,0.06l-0.12,0.12l-1.61,1.62&#xA;&#x9;&#x9;c-0.04,0.04-0.06,0.08-0.07,0.13c-0.01,0.05,0,0.1,0.02,0.15c0,0,0,0.01,0.01,0.01c0.02,0.04,0.05,0.08,0.09,0.1&#xA;&#x9;&#x9;c0.04,0.03,0.09,0.04,0.14,0.04h1.25h0.81c0.03,0,0.06,0,0.08-0.01C198.75,16.85,198.77,16.83,198.79,16.82z"></path>
&#x9;<path class="st1" d="M198.94,17.02l2.4-1.74c0.18-0.13,0.25-0.36,0.19-0.57c-0.07-0.21-0.26-0.35-0.48-0.35h-2.73&#xA;&#x9;&#x9;c-0.14,0-0.26,0.05-0.36,0.15l-0.12,0.12l-1.61,1.62c-0.15,0.15-0.19,0.36-0.11,0.55c0.08,0.19,0.26,0.31,0.47,0.31h1.25h0.81&#xA;&#x9;&#x9;C198.75,17.12,198.85,17.09,198.94,17.02"></path>
&#x9;<path class="st0" d="M209.89,27.44c0.11,0.39,0.2,0.79,0.27,1.19c0.07,0.41,0.12,0.82,0.16,1.24c0.04,0.42,0.05,0.85,0.05,1.29&#xA;&#x9;&#x9;c0,0.44-0.02,0.86-0.05,1.28c-0.04,0.41-0.09,0.83-0.16,1.24c-0.07,0.41-0.16,0.8-0.27,1.18c-0.11,0.39-0.24,0.77-0.39,1.14l0,0&#xA;&#x9;&#x9;l0,0c-0.15,0.37-0.31,0.73-0.49,1.08c-0.18,0.34-0.37,0.68-0.58,1c-0.21,0.32-0.44,0.63-0.68,0.93c-0.24,0.3-0.5,0.58-0.78,0.85&#xA;&#x9;&#x9;c-0.27,0.27-0.56,0.53-0.86,0.77c-0.3,0.24-0.62,0.47-0.95,0.68c-0.33,0.21-0.67,0.4-1.03,0.58c-0.35,0.18-0.72,0.34-1.1,0.49&#xA;&#x9;&#x9;c0,0-0.01,0-0.01,0.01c-0.39,0.15-0.78,0.28-1.19,0.4c-0.41,0.11-0.83,0.21-1.25,0.28v0l0,0c-0.43,0.07-0.86,0.13-1.31,0.17&#xA;&#x9;&#x9;c-0.45,0.04-0.91,0.06-1.38,0.06h-0.04v0c-0.48,0-0.95-0.02-1.39-0.06c-0.45-0.04-0.89-0.09-1.32-0.16c0,0-0.01,0-0.01,0&#xA;&#x9;&#x9;c-0.43-0.07-0.86-0.17-1.27-0.28c-0.4-0.11-0.8-0.24-1.18-0.38c-0.01,0-0.02-0.01-0.03-0.01c-0.39-0.15-0.77-0.31-1.13-0.49&#xA;&#x9;&#x9;c-0.35-0.18-0.69-0.37-1.02-0.58c0,0-0.01-0.01-0.01-0.01c-0.33-0.21-0.65-0.44-0.95-0.68c-0.3-0.24-0.59-0.5-0.86-0.77&#xA;&#x9;&#x9;c-0.27-0.27-0.53-0.56-0.77-0.85c-0.24-0.3-0.46-0.61-0.67-0.93l0,0c-0.21-0.32-0.4-0.66-0.58-1c-0.17-0.34-0.33-0.7-0.48-1.08&#xA;&#x9;&#x9;c-0.14-0.37-0.27-0.75-0.38-1.14c-0.11-0.39-0.2-0.78-0.27-1.18c-0.07-0.4-0.12-0.82-0.16-1.24c-0.04-0.42-0.05-0.85-0.05-1.28&#xA;&#x9;&#x9;c0-0.44,0.02-0.87,0.05-1.29c0.04-0.42,0.09-0.83,0.16-1.24c0.08-0.41,0.17-0.81,0.28-1.2c0.11-0.39,0.24-0.77,0.39-1.14l0,0&#xA;&#x9;&#x9;c0.15-0.37,0.31-0.73,0.49-1.08c0.18-0.35,0.38-0.68,0.59-1l0,0l0,0c0.21-0.32,0.44-0.63,0.68-0.93c0.24-0.3,0.5-0.58,0.77-0.85&#xA;&#x9;&#x9;c0.55-0.54,1.15-1.02,1.81-1.44c0.66-0.42,1.37-0.77,2.14-1.07c0,0,0.01,0,0.01,0c0.38-0.15,0.78-0.28,1.19-0.39&#xA;&#x9;&#x9;c0.41-0.11,0.82-0.21,1.25-0.28c0,0,0.01,0,0.01,0c0.43-0.07,0.87-0.13,1.32-0.17c0.45-0.04,0.91-0.06,1.39-0.06&#xA;&#x9;&#x9;c0.48,0,0.95,0.02,1.41,0.06c0.46,0.04,0.9,0.09,1.34,0.17c0.43,0.07,0.85,0.17,1.27,0.28c0.41,0.11,0.8,0.24,1.18,0.39&#xA;&#x9;&#x9;c0.01,0,0.01,0,0.02,0.01c0.39,0.15,0.76,0.31,1.12,0.49c0.36,0.18,0.71,0.37,1.04,0.58c0.33,0.21,0.65,0.44,0.95,0.68&#xA;&#x9;&#x9;c0.3,0.24,0.59,0.5,0.86,0.77c0.27,0.27,0.53,0.56,0.77,0.85c0.24,0.3,0.46,0.61,0.67,0.93c0.21,0.32,0.4,0.66,0.58,1&#xA;&#x9;&#x9;c0.17,0.34,0.33,0.69,0.47,1.06c0,0,0,0.01,0.01,0.01C209.66,26.67,209.78,27.05,209.89,27.44 M209.66,28.72&#xA;&#x9;&#x9;c-0.07-0.39-0.15-0.78-0.26-1.15c-0.1-0.37-0.22-0.74-0.36-1.09c0,0,0-0.01,0-0.01c-0.13-0.35-0.28-0.69-0.45-1.02&#xA;&#x9;&#x9;c-0.17-0.33-0.35-0.65-0.55-0.96c-0.2-0.31-0.41-0.6-0.64-0.88c-0.23-0.28-0.47-0.55-0.73-0.81c-0.26-0.26-0.53-0.5-0.82-0.73&#xA;&#x9;&#x9;c-0.29-0.23-0.59-0.44-0.91-0.65c-0.32-0.2-0.65-0.39-0.99-0.56c-0.34-0.17-0.69-0.32-1.05-0.46c-0.01,0-0.03-0.01-0.04-0.01&#xA;&#x9;&#x9;c-0.37-0.14-0.75-0.27-1.13-0.37c-0.39-0.11-0.8-0.2-1.22-0.27c-0.42-0.07-0.85-0.13-1.29-0.16c-0.44-0.04-0.9-0.05-1.37-0.05&#xA;&#x9;&#x9;c-0.46,0-0.91,0.02-1.34,0.05c-0.44,0.04-0.86,0.09-1.27,0.16c0,0-0.01,0-0.01,0c-0.41,0.07-0.81,0.16-1.2,0.27&#xA;&#x9;&#x9;c-0.39,0.11-0.77,0.23-1.14,0.38c0,0-0.01,0-0.01,0c-0.74,0.29-1.42,0.63-2.05,1.03c-0.63,0.4-1.21,0.86-1.73,1.37&#xA;&#x9;&#x9;c-0.26,0.26-0.51,0.53-0.74,0.81c-0.23,0.28-0.45,0.58-0.65,0.88l0,0c-0.2,0.31-0.39,0.63-0.56,0.96&#xA;&#x9;&#x9;c-0.17,0.33-0.33,0.68-0.47,1.03l0,0l0,0c-0.14,0.35-0.27,0.72-0.37,1.09c-0.11,0.38-0.2,0.76-0.27,1.15&#xA;&#x9;&#x9;c-0.07,0.38-0.12,0.78-0.16,1.19c-0.03,0.41-0.05,0.83-0.05,1.25c0,0.42,0.02,0.84,0.05,1.24c0.03,0.4,0.09,0.8,0.15,1.19&#xA;&#x9;&#x9;c0.07,0.39,0.15,0.77,0.26,1.14c0.1,0.37,0.22,0.74,0.36,1.09c0.14,0.35,0.29,0.69,0.46,1.03c0.17,0.33,0.35,0.65,0.55,0.95l0,0&#xA;&#x9;&#x9;l0,0c0.2,0.31,0.41,0.6,0.64,0.88c0.23,0.28,0.47,0.55,0.73,0.81c0.26,0.26,0.53,0.5,0.82,0.73c0.29,0.23,0.59,0.45,0.91,0.65&#xA;&#x9;&#x9;c0,0,0.01,0.01,0.01,0.01c0.31,0.2,0.64,0.38,0.98,0.55c0.34,0.17,0.7,0.33,1.07,0.47c0,0,0.01,0,0.01,0v0&#xA;&#x9;&#x9;c0.37,0.14,0.76,0.27,1.15,0.38c0.39,0.11,0.8,0.2,1.23,0.27c0,0,0.01,0,0.01,0c0.41,0.07,0.84,0.12,1.28,0.16&#xA;&#x9;&#x9;c0.45,0.04,0.9,0.05,1.36,0.06v0h0.04c0.46,0,0.9-0.02,1.33-0.05c0.43-0.04,0.86-0.09,1.27-0.16l0,0c0.42-0.07,0.82-0.16,1.21-0.27&#xA;&#x9;&#x9;c0.39-0.11,0.77-0.23,1.14-0.38c0,0,0.01,0,0.01,0c0.36-0.14,0.71-0.3,1.05-0.47c0.34-0.17,0.67-0.36,0.99-0.56&#xA;&#x9;&#x9;c0.32-0.2,0.62-0.42,0.91-0.65c0.29-0.23,0.56-0.47,0.82-0.73c0.26-0.26,0.51-0.53,0.74-0.81c0.23-0.28,0.45-0.58,0.65-0.88&#xA;&#x9;&#x9;c0.2-0.3,0.38-0.62,0.56-0.95c0.17-0.33,0.33-0.68,0.47-1.03l0,0c0.14-0.36,0.27-0.72,0.37-1.09c0.11-0.37,0.19-0.75,0.26-1.14&#xA;&#x9;&#x9;c0.07-0.38,0.12-0.78,0.16-1.19c0.03-0.4,0.05-0.82,0.05-1.24c0-0.42-0.02-0.84-0.05-1.25C209.78,29.51,209.73,29.11,209.66,28.72z&#xA;&#x9;&#x9; M205.14,33.94c0.07-0.28,0.14-0.56,0.19-0.85c0.05-0.3,0.09-0.6,0.11-0.93c0.02-0.32,0.04-0.65,0.04-1c0-0.68-0.05-1.32-0.15-1.91&#xA;&#x9;&#x9;c-0.1-0.58-0.24-1.13-0.43-1.63c0-0.01-0.01-0.01-0.01-0.02c-0.1-0.26-0.21-0.5-0.33-0.73c-0.12-0.23-0.24-0.45-0.37-0.66&#xA;&#x9;&#x9;c-0.13-0.2-0.27-0.4-0.43-0.59c-0.15-0.19-0.31-0.37-0.48-0.53c-0.17-0.16-0.34-0.32-0.53-0.47c-0.19-0.15-0.38-0.28-0.57-0.41&#xA;&#x9;&#x9;c-0.2-0.13-0.41-0.24-0.63-0.35c-0.21-0.1-0.43-0.2-0.65-0.28c-0.02,0-0.03-0.01-0.05-0.02c-0.22-0.08-0.44-0.15-0.68-0.22&#xA;&#x9;&#x9;c-0.24-0.06-0.49-0.12-0.74-0.16c0,0-0.01,0-0.01,0c-0.25-0.04-0.51-0.08-0.77-0.1c-0.26-0.02-0.53-0.03-0.81-0.03&#xA;&#x9;&#x9;c-0.28,0-0.55,0.01-0.81,0.03c-0.26,0.02-0.52,0.05-0.77,0.1c-0.25,0.04-0.5,0.1-0.74,0.16c-0.24,0.06-0.46,0.14-0.68,0.22&#xA;&#x9;&#x9;c-0.01,0.01-0.02,0.01-0.03,0.01c-0.24,0.09-0.46,0.18-0.67,0.29c-0.21,0.1-0.42,0.22-0.62,0.35l0,0l0,0&#xA;&#x9;&#x9;c-0.2,0.12-0.39,0.26-0.57,0.41c-0.19,0.15-0.36,0.3-0.53,0.47c-0.17,0.17-0.33,0.35-0.49,0.54c-0.15,0.18-0.29,0.38-0.42,0.59&#xA;&#x9;&#x9;c-0.13,0.21-0.26,0.43-0.37,0.66c-0.12,0.23-0.22,0.47-0.32,0.73c-0.1,0.25-0.18,0.52-0.26,0.79c-0.07,0.28-0.14,0.56-0.19,0.86h0&#xA;&#x9;&#x9;c-0.05,0.29-0.09,0.6-0.11,0.92c-0.02,0.32-0.04,0.65-0.04,0.99c0,0.35,0.01,0.68,0.04,0.99c0.03,0.32,0.06,0.63,0.11,0.92&#xA;&#x9;&#x9;c0.05,0.3,0.11,0.59,0.19,0.85c0.07,0.26,0.16,0.52,0.25,0.77c0,0,0,0.01,0,0.01c0.1,0.25,0.21,0.5,0.33,0.72&#xA;&#x9;&#x9;c0.12,0.23,0.24,0.45,0.38,0.66c0.14,0.21,0.28,0.41,0.43,0.59c0.15,0.19,0.31,0.36,0.48,0.53c0.17,0.17,0.34,0.32,0.53,0.47&#xA;&#x9;&#x9;c0.18,0.15,0.38,0.28,0.57,0.41c0.2,0.13,0.41,0.24,0.62,0.35c0.21,0.1,0.43,0.2,0.67,0.28l0,0c0.23,0.08,0.47,0.16,0.71,0.22&#xA;&#x9;&#x9;c0.24,0.06,0.49,0.12,0.75,0.16c0.25,0.04,0.5,0.07,0.76,0.09c0.26,0.02,0.52,0.03,0.77,0.03c0.01,0,0.01,0,0.02,0h0.04&#xA;&#x9;&#x9;c0.28,0,0.55-0.01,0.81-0.03c0.26-0.02,0.52-0.05,0.77-0.1c0.25-0.04,0.5-0.1,0.74-0.16c0.24-0.06,0.47-0.14,0.7-0.22&#xA;&#x9;&#x9;c0.23-0.09,0.45-0.18,0.66-0.28c0.21-0.1,0.42-0.22,0.61-0.34l0,0c0.19-0.12,0.39-0.26,0.57-0.41c0.18-0.15,0.36-0.3,0.53-0.47&#xA;&#x9;&#x9;c0.17-0.17,0.33-0.34,0.48-0.53c0.15-0.18,0.29-0.38,0.42-0.58c0,0,0-0.01,0.01-0.01c0.13-0.21,0.26-0.43,0.38-0.66&#xA;&#x9;&#x9;c0.12-0.23,0.22-0.47,0.32-0.72h0C204.98,34.48,205.06,34.22,205.14,33.94z M205.82,33.17c-0.05,0.31-0.12,0.61-0.2,0.9&#xA;&#x9;&#x9;c-0.08,0.28-0.16,0.55-0.26,0.81c0,0.01-0.01,0.02-0.01,0.04c-0.1,0.26-0.22,0.51-0.34,0.76c-0.12,0.25-0.26,0.48-0.4,0.7&#xA;&#x9;&#x9;c0,0,0,0.01-0.01,0.01c-0.14,0.22-0.29,0.43-0.45,0.62c-0.16,0.2-0.33,0.39-0.52,0.57c-0.18,0.18-0.37,0.35-0.57,0.51&#xA;&#x9;&#x9;c-0.2,0.16-0.4,0.3-0.62,0.44l0,0l0,0c-0.21,0.13-0.43,0.26-0.66,0.37c-0.23,0.11-0.47,0.22-0.71,0.31&#xA;&#x9;&#x9;c-0.24,0.09-0.49,0.17-0.75,0.24c-0.26,0.07-0.52,0.12-0.78,0.17c-0.27,0.05-0.54,0.08-0.81,0.1c-0.28,0.02-0.56,0.03-0.85,0.03&#xA;&#x9;&#x9;h-0.04c-0.01,0-0.02,0-0.02,0c-0.28,0-0.55-0.01-0.81-0.03c-0.27-0.02-0.54-0.06-0.8-0.1c-0.27-0.05-0.53-0.1-0.79-0.17&#xA;&#x9;&#x9;c-0.26-0.07-0.51-0.15-0.76-0.24l0,0l0,0c-0.24-0.09-0.48-0.19-0.71-0.31c-0.23-0.11-0.46-0.24-0.67-0.37&#xA;&#x9;&#x9;c-0.22-0.14-0.42-0.28-0.62-0.44c-0.2-0.16-0.39-0.32-0.57-0.5c-0.18-0.18-0.35-0.37-0.52-0.57c-0.16-0.2-0.32-0.41-0.46-0.64&#xA;&#x9;&#x9;c-0.14-0.22-0.28-0.46-0.41-0.71c-0.12-0.24-0.24-0.49-0.34-0.74c-0.01-0.01-0.01-0.03-0.02-0.04c-0.1-0.26-0.19-0.53-0.27-0.82&#xA;&#x9;&#x9;c-0.08-0.29-0.15-0.59-0.2-0.9c-0.05-0.31-0.09-0.63-0.12-0.97c-0.03-0.33-0.04-0.68-0.04-1.03c0-0.35,0.01-0.7,0.04-1.03&#xA;&#x9;&#x9;c0.03-0.33,0.07-0.65,0.12-0.97l0,0h0c0.05-0.31,0.12-0.61,0.2-0.9c0.08-0.29,0.17-0.57,0.28-0.85c0.1-0.27,0.22-0.52,0.34-0.77&#xA;&#x9;&#x9;c0.13-0.25,0.26-0.48,0.4-0.7c0.14-0.22,0.29-0.43,0.46-0.63c0.16-0.2,0.34-0.4,0.52-0.58c0.18-0.18,0.37-0.35,0.57-0.5&#xA;&#x9;&#x9;c0.19-0.15,0.4-0.3,0.62-0.44l0,0c0.21-0.13,0.44-0.26,0.67-0.37c0.23-0.11,0.46-0.21,0.69-0.3c0.01-0.01,0.03-0.01,0.05-0.02&#xA;&#x9;&#x9;c0.24-0.09,0.49-0.17,0.74-0.24c0.26-0.07,0.52-0.13,0.79-0.17c0.27-0.05,0.54-0.08,0.81-0.1c0.28-0.02,0.56-0.03,0.85-0.03&#xA;&#x9;&#x9;c0.29,0,0.57,0.01,0.85,0.03c0.28,0.02,0.55,0.06,0.82,0.1c0,0,0.01,0,0.01,0c0.27,0.05,0.53,0.1,0.78,0.17&#xA;&#x9;&#x9;c0.25,0.07,0.51,0.15,0.75,0.24c0.01,0,0.02,0.01,0.02,0.01c0.24,0.09,0.47,0.19,0.7,0.3c0.23,0.11,0.46,0.24,0.67,0.37&#xA;&#x9;&#x9;c0.22,0.14,0.42,0.28,0.62,0.44c0.2,0.16,0.39,0.32,0.57,0.5c0.19,0.18,0.36,0.37,0.52,0.57c0.16,0.2,0.31,0.41,0.46,0.63&#xA;&#x9;&#x9;c0.14,0.22,0.28,0.46,0.4,0.7c0.12,0.24,0.23,0.49,0.34,0.75c0.01,0.01,0.01,0.03,0.02,0.04c0.2,0.53,0.36,1.11,0.46,1.73&#xA;&#x9;&#x9;c0.1,0.62,0.16,1.29,0.16,2c0,0.35-0.01,0.7-0.04,1.03C205.91,32.54,205.87,32.86,205.82,33.17z"></path>
&#x9;<path class="st1" d="M209.91,28.68c-0.14-0.8-0.35-1.56-0.63-2.29c-0.28-0.73-0.62-1.41-1.03-2.03c-0.41-0.63-0.88-1.21-1.41-1.74&#xA;&#x9;&#x9;c-0.53-0.53-1.12-1-1.77-1.41c-0.65-0.41-1.35-0.76-2.11-1.05v0c-0.76-0.3-1.57-0.52-2.42-0.66c-0.85-0.15-1.76-0.22-2.7-0.22&#xA;&#x9;&#x9;c-0.93,0-1.82,0.07-2.66,0.22c-0.84,0.15-1.64,0.37-2.4,0.66c-1.52,0.59-2.81,1.41-3.88,2.47c-0.53,0.53-1.01,1.11-1.42,1.73&#xA;&#x9;&#x9;c-0.41,0.63-0.76,1.3-1.05,2.03c-0.29,0.73-0.51,1.49-0.65,2.29c-0.14,0.8-0.21,1.63-0.21,2.49c0,0.86,0.07,1.68,0.21,2.48&#xA;&#x9;&#x9;c0.14,0.79,0.35,1.55,0.63,2.28c0.28,0.73,0.62,1.4,1.03,2.03c0.4,0.63,0.87,1.21,1.4,1.74c0.53,0.53,1.12,1,1.77,1.41&#xA;&#x9;&#x9;c0.65,0.41,1.35,0.76,2.12,1.06l0,0c0.76,0.29,1.57,0.52,2.43,0.66c0.85,0.14,1.74,0.22,2.68,0.22h0.04c0.93,0,1.81-0.07,2.64-0.22&#xA;&#x9;&#x9;c0.84-0.15,1.64-0.37,2.4-0.66c0.75-0.29,1.45-0.64,2.09-1.05c0.65-0.41,1.24-0.88,1.77-1.41c0.54-0.53,1.01-1.11,1.43-1.74&#xA;&#x9;&#x9;c0.41-0.63,0.76-1.3,1.05-2.03c0.29-0.73,0.5-1.49,0.65-2.28c0.14-0.79,0.21-1.62,0.21-2.48&#xA;&#x9;&#x9;C210.12,30.31,210.05,29.48,209.91,28.68 M205.57,33.13c-0.1,0.6-0.25,1.17-0.46,1.69h0c-0.2,0.52-0.45,0.99-0.72,1.42&#xA;&#x9;&#x9;c-0.28,0.43-0.59,0.82-0.94,1.16c-0.35,0.35-0.74,0.65-1.15,0.91c-0.41,0.26-0.85,0.48-1.33,0.65c-0.47,0.17-0.97,0.31-1.49,0.4&#xA;&#x9;&#x9;c-0.52,0.09-1.05,0.13-1.62,0.13h-0.04c-0.56,0-1.09-0.05-1.6-0.13c-0.53-0.09-1.03-0.22-1.51-0.4c-0.48-0.17-0.92-0.39-1.34-0.65&#xA;&#x9;&#x9;c-0.41-0.26-0.8-0.56-1.15-0.91c-0.35-0.34-0.66-0.73-0.94-1.16c-0.28-0.43-0.53-0.91-0.73-1.43h0c-0.2-0.52-0.36-1.08-0.46-1.69&#xA;&#x9;&#x9;c-0.1-0.6-0.16-1.26-0.16-1.96c0-0.7,0.05-1.35,0.15-1.96c0.1-0.61,0.26-1.17,0.46-1.7c0.2-0.52,0.44-1,0.72-1.43&#xA;&#x9;&#x9;c0.28-0.43,0.59-0.82,0.95-1.17c0.35-0.35,0.73-0.65,1.15-0.91c0.41-0.26,0.86-0.48,1.34-0.66l0,0c0.48-0.18,0.98-0.31,1.5-0.4&#xA;&#x9;&#x9;c0.52-0.09,1.06-0.13,1.62-0.13c0.56,0,1.1,0.04,1.62,0.13c0.53,0.09,1.02,0.22,1.5,0.4l0,0c0.48,0.18,0.93,0.4,1.34,0.66&#xA;&#x9;&#x9;c0.41,0.26,0.8,0.56,1.15,0.91c0.35,0.35,0.67,0.73,0.94,1.16c0.28,0.43,0.52,0.91,0.72,1.44h0c0.4,1.05,0.61,2.26,0.61,3.65&#xA;&#x9;&#x9;C205.72,31.87,205.67,32.53,205.57,33.13z"></path>
&#x9;<path class="st0" d="M182.5,37.02V20.19c0-0.07-0.03-0.13-0.07-0.18c-0.05-0.05-0.11-0.07-0.18-0.07h-3.03&#xA;&#x9;&#x9;c-0.07,0-0.13,0.03-0.18,0.07c-0.05,0.05-0.07,0.11-0.07,0.18v16.34v0.01h0c0,0,0,0,0,0c-0.03,1.24-0.32,2.03-0.93,2.52&#xA;&#x9;&#x9;c-0.6,0.48-1.47,0.64-2.68,0.64c-0.64,0-1.17-0.05-1.68-0.16c-0.5-0.1-0.97-0.25-1.49-0.43l0,0c-0.04-0.01-0.08-0.02-0.12-0.01&#xA;&#x9;&#x9;c-0.03,0-0.07,0.02-0.1,0.04c0,0-0.01,0-0.01,0.01c-0.04,0.03-0.06,0.06-0.08,0.09c-0.02,0.03-0.03,0.07-0.03,0.12v2.62&#xA;&#x9;&#x9;c0,0.06,0.02,0.11,0.04,0.15c0.03,0.04,0.06,0.07,0.11,0.09c0,0,0.01,0,0.01,0c1.59,0.55,3.65,0.74,5.52,0.4&#xA;&#x9;&#x9;c1.56-0.28,2.98-0.94,3.87-2.08l0,0c0.24-0.31,0.44-0.64,0.6-0.99c0.16-0.36,0.29-0.75,0.37-1.14h0c0.04-0.2,0.07-0.43,0.09-0.66&#xA;&#x9;&#x9;C182.49,37.51,182.5,37.26,182.5,37.02 M183.01,20.19v16.83c0,0.25-0.01,0.52-0.03,0.78c-0.02,0.25-0.06,0.5-0.1,0.72l0,0h0&#xA;&#x9;&#x9;c-0.09,0.43-0.22,0.85-0.4,1.25c-0.18,0.39-0.4,0.76-0.66,1.1l0,0l0,0c-0.98,1.24-2.51,1.96-4.19,2.26&#xA;&#x9;&#x9;c-1.96,0.35-4.11,0.15-5.77-0.42c-0.01,0-0.02-0.01-0.03-0.01c-0.14-0.06-0.26-0.15-0.35-0.27c-0.09-0.13-0.14-0.28-0.14-0.44&#xA;&#x9;&#x9;v-2.62c0-0.12,0.03-0.24,0.08-0.35c0.06-0.11,0.13-0.2,0.24-0.27c0.01,0,0.01-0.01,0.02-0.01c0.1-0.07,0.2-0.11,0.32-0.12&#xA;&#x9;&#x9;c0.12-0.02,0.24-0.01,0.36,0.03l0,0l0,0c0.51,0.18,0.96,0.32,1.43,0.41c0.47,0.09,0.96,0.14,1.58,0.14c1.09,0,1.87-0.13,2.36-0.53&#xA;&#x9;&#x9;c0.48-0.39,0.72-1.05,0.74-2.13h0v-0.01V20.19c0-0.21,0.09-0.4,0.22-0.54c0.14-0.14,0.33-0.22,0.54-0.22h3.03&#xA;&#x9;&#x9;c0.21,0,0.4,0.09,0.54,0.22C182.92,19.79,183.01,19.98,183.01,20.19z"></path>
&#x9;<path class="st1" d="M182.75,20.19v16.83c0,0.48-0.04,1.02-0.13,1.45c-0.16,0.81-0.5,1.58-1.01,2.24c-2.04,2.6-6.67,2.79-9.68,1.76&#xA;&#x9;&#x9;c-0.21-0.07-0.34-0.26-0.34-0.48v-2.62c0-0.17,0.08-0.32,0.21-0.41c0.14-0.1,0.3-0.12,0.46-0.07c1.04,0.36,1.83,0.57,3.09,0.57&#xA;&#x9;&#x9;c2.29,0,3.3-0.59,3.35-2.91v-0.01V20.19c0-0.28,0.23-0.51,0.51-0.51h3.03C182.53,19.68,182.75,19.91,182.75,20.19"></path>
&#x9;<path class="st0" d="M157.1,19.43h2.63c0.15,0,0.29,0.04,0.41,0.12c0.11,0.07,0.21,0.17,0.27,0.3c0,0.01,0.01,0.01,0.01,0.02&#xA;&#x9;&#x9;l10.21,21.93l0,0c0.06,0.12,0.08,0.25,0.07,0.37c-0.01,0.12-0.05,0.24-0.11,0.35c0,0,0,0.01-0.01,0.01&#xA;&#x9;&#x9;c-0.07,0.11-0.17,0.2-0.28,0.26c-0.11,0.06-0.23,0.09-0.37,0.09h-3.28c-0.15,0-0.29-0.04-0.42-0.12c-0.12-0.08-0.22-0.19-0.28-0.33&#xA;&#x9;&#x9;h0l-2.73-6.02c-0.02-0.05-0.05-0.09-0.09-0.11c-0.04-0.03-0.09-0.04-0.14-0.04h-9.2c-0.05,0-0.09,0.01-0.13,0.03&#xA;&#x9;&#x9;c0,0-0.01,0.01-0.01,0.01c-0.03,0.02-0.06,0.05-0.08,0.09c0,0,0,0.01-0.01,0.01l-2.73,6.03l0,0c-0.06,0.14-0.16,0.25-0.28,0.33&#xA;&#x9;&#x9;c-0.12,0.08-0.26,0.12-0.41,0.12h-3.24c-0.13,0-0.26-0.03-0.37-0.09c-0.11-0.06-0.2-0.14-0.27-0.25c0,0-0.01-0.01-0.01-0.01&#xA;&#x9;&#x9;c-0.07-0.11-0.11-0.23-0.12-0.36c-0.01-0.12,0.02-0.25,0.07-0.37c0,0,0,0,0,0l10.2-21.93l0,0l0,0c0.06-0.14,0.16-0.25,0.28-0.32&#xA;&#x9;&#x9;C156.81,19.47,156.95,19.43,157.1,19.43 M159.73,19.93h-2.63c-0.05,0-0.1,0.01-0.14,0.04c-0.04,0.02-0.07,0.06-0.09,0.11l0,0&#xA;&#x9;&#x9;l-10.2,21.93c0,0,0,0,0,0.01c-0.02,0.04-0.03,0.08-0.02,0.12c0,0.04,0.02,0.08,0.04,0.12c0,0,0,0,0,0.01&#xA;&#x9;&#x9;c0.02,0.03,0.05,0.06,0.09,0.08c0.03,0.02,0.08,0.03,0.12,0.03h3.24c0.05,0,0.1-0.01,0.14-0.04c0.04-0.03,0.07-0.06,0.09-0.11l0,0&#xA;&#x9;&#x9;l0,0l2.73-6.03c0-0.01,0.01-0.01,0.01-0.02c0.06-0.13,0.16-0.23,0.27-0.31c0.01,0,0.01-0.01,0.02-0.01&#xA;&#x9;&#x9;c0.12-0.07,0.25-0.11,0.39-0.11h9.2c0.15,0,0.29,0.04,0.41,0.12c0.12,0.08,0.22,0.19,0.28,0.33l2.73,6.02l0,0l0,0&#xA;&#x9;&#x9;c0.02,0.05,0.05,0.08,0.09,0.11c0.04,0.02,0.09,0.04,0.14,0.04h3.28c0.05,0,0.09-0.01,0.12-0.03c0.03-0.02,0.07-0.05,0.09-0.09&#xA;&#x9;&#x9;c0,0,0-0.01,0.01-0.01c0.02-0.04,0.03-0.07,0.04-0.11c0-0.04-0.01-0.08-0.02-0.12l0,0l0,0l-10.21-21.93c0,0,0-0.01-0.01-0.02&#xA;&#x9;&#x9;c-0.02-0.04-0.05-0.07-0.08-0.09C159.83,19.95,159.78,19.93,159.73,19.93z M158.16,25.22l-2.63,6.79c-0.02,0.05-0.03,0.1-0.02,0.14&#xA;&#x9;&#x9;c0,0.04,0.02,0.07,0.04,0.11l0,0c0.02,0.04,0.06,0.07,0.09,0.09c0.03,0.02,0.08,0.03,0.12,0.03h5.28c0.05,0,0.09-0.01,0.12-0.03&#xA;&#x9;&#x9;c0.04-0.02,0.07-0.05,0.09-0.09l0,0l0,0c0.02-0.03,0.03-0.07,0.04-0.11c0-0.04,0-0.09-0.02-0.13c0,0,0-0.01,0-0.01l-2.65-6.79l0,0&#xA;&#x9;&#x9;l0,0c-0.02-0.04-0.05-0.08-0.08-0.1c-0.04-0.03-0.09-0.04-0.15-0.04v0c-0.06,0-0.11,0.01-0.15,0.04&#xA;&#x9;&#x9;C158.2,25.15,158.18,25.18,158.16,25.22z M155.06,31.82l2.63-6.78c0.06-0.15,0.15-0.26,0.28-0.34c0.12-0.08,0.27-0.12,0.42-0.12v0&#xA;&#x9;&#x9;c0.16,0,0.3,0.04,0.43,0.12c0.12,0.08,0.22,0.2,0.28,0.34l0,0l2.65,6.79c0,0,0,0.01,0.01,0.02c0.04,0.12,0.06,0.23,0.05,0.35&#xA;&#x9;&#x9;c-0.01,0.12-0.05,0.24-0.12,0.35l0,0c-0.07,0.11-0.16,0.2-0.27,0.26c-0.11,0.06-0.23,0.09-0.36,0.09h-5.28&#xA;&#x9;&#x9;c-0.13,0-0.25-0.03-0.36-0.09c-0.11-0.06-0.2-0.14-0.27-0.25l0,0l0,0c-0.07-0.11-0.11-0.23-0.12-0.35&#xA;&#x9;&#x9;C154.99,32.07,155.01,31.94,155.06,31.82z"></path>
&#x9;<path class="st1" d="M159.73,19.68h-2.63c-0.2,0-0.37,0.11-0.46,0.29l-10.2,21.93c-0.08,0.16-0.06,0.34,0.03,0.49&#xA;&#x9;&#x9;c0.1,0.15,0.25,0.23,0.43,0.23h3.24c0.2,0,0.38-0.11,0.46-0.3l2.73-6.03c0.08-0.19,0.26-0.3,0.46-0.3h9.2c0.2,0,0.38,0.11,0.46,0.3&#xA;&#x9;&#x9;l2.73,6.02c0.08,0.19,0.26,0.3,0.46,0.3h3.28c0.18,0,0.33-0.08,0.43-0.24c0.1-0.15,0.11-0.33,0.03-0.49l-10.21-21.93&#xA;&#x9;&#x9;C160.11,19.79,159.93,19.68,159.73,19.68 M155.29,31.92l2.63-6.78c0.07-0.19,0.26-0.31,0.47-0.31c0.21,0,0.39,0.11,0.47,0.3&#xA;&#x9;&#x9;l2.65,6.79c0.06,0.16,0.06,0.33-0.04,0.48c-0.1,0.15-0.25,0.23-0.42,0.23h-5.28c-0.18,0-0.33-0.08-0.43-0.23&#xA;&#x9;&#x9;C155.24,32.25,155.23,32.08,155.29,31.92z"></path>
&#x9;<path class="st0" d="M136.18,29.91c-1.77,0.65-4.01,0.81-5.36,0.81c-0.05,0-0.1,0.01-0.14,0.04c-0.04,0.02-0.07,0.06-0.09,0.11l0,0&#xA;&#x9;&#x9;l0,0c-0.02,0.05-0.03,0.09-0.02,0.14c0.01,0.05,0.03,0.09,0.06,0.13l9.32,11.14c0.03,0.03,0.05,0.05,0.09,0.07&#xA;&#x9;&#x9;c0.03,0.01,0.07,0.02,0.11,0.02h3.54c0.05,0,0.1-0.01,0.14-0.04c0.04-0.02,0.07-0.06,0.09-0.11l0,0l0,0&#xA;&#x9;&#x9;c0.02-0.05,0.03-0.1,0.02-0.14c-0.01-0.05-0.03-0.09-0.06-0.13l-7.07-8.16c-0.09-0.1-0.14-0.22-0.17-0.34&#xA;&#x9;&#x9;c-0.03-0.12-0.02-0.25,0.02-0.38l0,0c0.04-0.13,0.1-0.24,0.19-0.32c0.09-0.09,0.2-0.15,0.33-0.19c0.79-0.23,1.52-0.54,2.18-0.96&#xA;&#x9;&#x9;c0.66-0.42,1.25-0.95,1.75-1.62c0.58-0.78,0.94-1.71,1.07-2.68c0.13-0.99,0.03-2.01-0.31-2.94c0-0.01,0-0.01-0.01-0.02&#xA;&#x9;&#x9;c-0.25-0.69-0.58-1.29-1.01-1.81c-0.42-0.51-0.94-0.94-1.58-1.28c0,0-0.01,0-0.01-0.01c-1.09-0.58-2.31-0.91-3.56-1.09&#xA;&#x9;&#x9;c-1.26-0.19-2.56-0.23-3.79-0.23h-6.79c-0.07,0-0.13,0.03-0.18,0.07c-0.05,0.05-0.07,0.11-0.07,0.18v21.93&#xA;&#x9;&#x9;c0,0.07,0.03,0.13,0.07,0.18c0.05,0.05,0.11,0.07,0.18,0.07h3.03c0.07,0,0.13-0.03,0.18-0.07c0.05-0.05,0.07-0.11,0.07-0.18V23.57&#xA;&#x9;&#x9;c0-0.21,0.09-0.4,0.22-0.54c0.14-0.14,0.33-0.22,0.54-0.22h2.77v0h0.09c2.1,0,5.88,0,6.77,2.43c0.14,0.38,0.2,0.81,0.2,1.24&#xA;&#x9;&#x9;c0,0.44-0.07,0.88-0.2,1.25C138.44,28.77,137.42,29.46,136.18,29.91 M130.83,30.21c1.31,0,3.48-0.16,5.18-0.78&#xA;&#x9;&#x9;c1.11-0.4,2.01-1,2.31-1.87c0.12-0.32,0.17-0.7,0.17-1.09c0-0.38-0.06-0.75-0.17-1.07c-0.76-2.1-4.32-2.09-6.29-2.09h-0.09v0h-2.77&#xA;&#x9;&#x9;c-0.07,0-0.13,0.03-0.18,0.07c-0.05,0.05-0.07,0.11-0.07,0.18v18.55c0,0.21-0.09,0.4-0.22,0.54c-0.14,0.14-0.33,0.22-0.54,0.22&#xA;&#x9;&#x9;h-3.03c-0.21,0-0.4-0.09-0.54-0.22c-0.14-0.14-0.22-0.33-0.22-0.54V20.19c0-0.21,0.09-0.4,0.22-0.54c0.14-0.14,0.33-0.22,0.54-0.22&#xA;&#x9;&#x9;h6.79c1.26,0,2.57,0.04,3.87,0.23c1.3,0.19,2.57,0.54,3.72,1.15c0,0,0.01,0,0.01,0.01c0.7,0.37,1.27,0.84,1.74,1.4&#xA;&#x9;&#x9;c0.46,0.56,0.82,1.22,1.09,1.96c0,0.01,0,0.01,0.01,0.02c0.37,1,0.48,2.11,0.34,3.18c-0.14,1.05-0.53,2.07-1.17,2.92&#xA;&#x9;&#x9;c-0.54,0.72-1.18,1.29-1.89,1.75c-0.71,0.45-1.49,0.78-2.32,1.02c-0.04,0.01-0.08,0.03-0.11,0.06c-0.03,0.03-0.05,0.07-0.06,0.11&#xA;&#x9;&#x9;l0,0l0,0c-0.01,0.04-0.02,0.09-0.01,0.13c0.01,0.04,0.03,0.08,0.06,0.11l7.07,8.16c0.1,0.11,0.16,0.25,0.18,0.39&#xA;&#x9;&#x9;c0.02,0.14,0,0.29-0.06,0.42l0,0c-0.06,0.14-0.16,0.25-0.28,0.33c-0.12,0.08-0.26,0.12-0.41,0.12h-3.54&#xA;&#x9;&#x9;c-0.12,0-0.22-0.02-0.32-0.07c-0.1-0.05-0.19-0.11-0.26-0.2l-9.32-11.14c-0.1-0.11-0.15-0.25-0.17-0.39&#xA;&#x9;&#x9;c-0.02-0.14,0-0.28,0.07-0.42l0,0c0.06-0.14,0.16-0.25,0.28-0.32C130.54,30.26,130.68,30.21,130.83,30.21z"></path>
&#x9;<path class="st1" d="M130.83,30.47c2.22-0.01,6.9-0.45,7.74-2.82c0.25-0.7,0.25-1.63,0-2.33c-0.83-2.3-4.6-2.26-6.62-2.26h-2.77&#xA;&#x9;&#x9;c-0.28,0-0.51,0.23-0.51,0.51v18.55c0,0.28-0.23,0.51-0.51,0.51h-3.03c-0.28,0-0.51-0.23-0.51-0.51V20.19&#xA;&#x9;&#x9;c0-0.28,0.23-0.51,0.51-0.51h6.79c2.49,0,5.23,0.16,7.47,1.35c1.36,0.72,2.2,1.8,2.72,3.23c0.71,1.91,0.45,4.23-0.79,5.87&#xA;&#x9;&#x9;c-1.05,1.39-2.45,2.21-4.07,2.67c-0.17,0.05-0.3,0.17-0.35,0.34c-0.05,0.17-0.01,0.34,0.1,0.48l7.07,8.16&#xA;&#x9;&#x9;c0.13,0.15,0.16,0.36,0.08,0.54c-0.08,0.19-0.26,0.3-0.46,0.3h-3.54c-0.16,0-0.29-0.06-0.39-0.18l-9.32-11.14&#xA;&#x9;&#x9;c-0.13-0.15-0.16-0.36-0.07-0.54C130.45,30.58,130.62,30.47,130.83,30.47"></path>
&#x9;<path class="st0" d="M74.02,27.48l7.04,14.75l0,0l0,0c0.02,0.05,0.05,0.08,0.09,0.11c0.04,0.02,0.08,0.04,0.14,0.04h1.4&#xA;&#x9;&#x9;c0.05,0,0.1-0.01,0.14-0.04c0.04-0.02,0.07-0.06,0.09-0.11l7.2-14.82l0,0l0,0c0.08-0.16,0.21-0.28,0.36-0.36&#xA;&#x9;&#x9;c0.15-0.07,0.33-0.09,0.5-0.05c0.17,0.04,0.32,0.14,0.43,0.27c0.1,0.13,0.16,0.3,0.16,0.48h0l-0.01,14.37h0&#xA;&#x9;&#x9;c0,0.04,0.01,0.07,0.02,0.1c0.01,0.03,0.03,0.06,0.06,0.08l0,0c0.03,0.03,0.05,0.04,0.08,0.06s0.06,0.02,0.1,0.02h2.78&#xA;&#x9;&#x9;c0.07,0,0.13-0.03,0.18-0.07c0.05-0.05,0.07-0.11,0.07-0.18V20.19c0-0.07-0.03-0.13-0.07-0.18c-0.05-0.05-0.11-0.07-0.18-0.07&#xA;&#x9;&#x9;h-4.31c-0.05,0-0.1,0.01-0.14,0.04c-0.04,0.02-0.07,0.06-0.09,0.11l0,0l0,0l-7.33,15.63c0,0,0,0.01-0.01,0.01&#xA;&#x9;&#x9;c-0.06,0.14-0.16,0.25-0.28,0.32c-0.12,0.08-0.26,0.12-0.41,0.12c-0.15,0-0.29-0.04-0.41-0.12c-0.11-0.07-0.21-0.18-0.27-0.3&#xA;&#x9;&#x9;c0,0-0.01-0.01-0.01-0.02l-7.4-15.64c-0.02-0.05-0.05-0.08-0.09-0.11c-0.04-0.02-0.09-0.04-0.14-0.04H69.4&#xA;&#x9;&#x9;c-0.07,0-0.13,0.03-0.18,0.07c-0.05,0.05-0.07,0.11-0.07,0.18v21.93c0,0.07,0.03,0.13,0.07,0.18c0.05,0.05,0.11,0.07,0.18,0.07h2.9&#xA;&#x9;&#x9;c0.07,0,0.13-0.03,0.18-0.07c0.05-0.05,0.08-0.11,0.08-0.18l0.01-14.31h0c0-0.18,0.06-0.34,0.17-0.48c0.1-0.13,0.25-0.23,0.43-0.27&#xA;&#x9;&#x9;l0,0l0,0c0.17-0.04,0.35-0.02,0.5,0.06c0.15,0.07,0.27,0.19,0.35,0.34C74.02,27.46,74.02,27.47,74.02,27.48 M80.61,42.44&#xA;&#x9;&#x9;l-7.04-14.75c0,0,0-0.01,0-0.01c-0.03-0.05-0.07-0.09-0.11-0.11c-0.05-0.02-0.11-0.03-0.17-0.02v0c-0.06,0.01-0.11,0.04-0.14,0.09&#xA;&#x9;&#x9;c-0.03,0.04-0.05,0.1-0.05,0.16h0l-0.01,14.31v0c0,0.21-0.09,0.4-0.23,0.54c-0.14,0.14-0.33,0.22-0.54,0.22h-2.9&#xA;&#x9;&#x9;c-0.21,0-0.4-0.09-0.54-0.22c-0.14-0.14-0.22-0.33-0.22-0.54V20.19c0-0.21,0.09-0.4,0.22-0.54c0.14-0.14,0.33-0.22,0.54-0.22h4.31&#xA;&#x9;&#x9;c0.15,0,0.29,0.04,0.41,0.12c0.12,0.08,0.22,0.18,0.28,0.32l7.4,15.64c0,0,0,0.01,0,0.01c0.02,0.04,0.05,0.07,0.09,0.1&#xA;&#x9;&#x9;c0.04,0.02,0.09,0.04,0.14,0.04c0.05,0,0.1-0.01,0.14-0.04c0.04-0.02,0.07-0.06,0.09-0.11c0-0.01,0-0.01,0.01-0.02l7.32-15.63l0,0&#xA;&#x9;&#x9;c0.06-0.14,0.16-0.25,0.28-0.32c0.12-0.08,0.26-0.12,0.41-0.12h4.31c0.21,0,0.4,0.09,0.54,0.22c0.14,0.14,0.22,0.33,0.22,0.54&#xA;&#x9;&#x9;v21.93c0,0.21-0.09,0.4-0.22,0.54c-0.14,0.14-0.33,0.22-0.54,0.22H91.8c-0.1,0-0.2-0.02-0.29-0.06c-0.09-0.04-0.17-0.09-0.25-0.17&#xA;&#x9;&#x9;v0c-0.07-0.07-0.13-0.16-0.17-0.25c-0.04-0.09-0.06-0.19-0.06-0.29h0l0.01-14.37h0c0-0.06-0.02-0.12-0.05-0.16&#xA;&#x9;&#x9;c-0.03-0.04-0.08-0.08-0.14-0.09c-0.06-0.01-0.12-0.01-0.17,0.02c-0.05,0.02-0.09,0.06-0.12,0.12l0,0l-7.2,14.82&#xA;&#x9;&#x9;c-0.06,0.13-0.16,0.24-0.28,0.31c-0.12,0.07-0.26,0.12-0.4,0.12h-1.4c-0.15,0-0.29-0.04-0.41-0.12&#xA;&#x9;&#x9;C80.77,42.69,80.67,42.58,80.61,42.44L80.61,42.44z"></path>
&#x9;<path class="st1" d="M80.84,42.33l-7.04-14.75c-0.1-0.22-0.34-0.33-0.57-0.28c-0.23,0.05-0.4,0.26-0.4,0.5l-0.01,14.31&#xA;&#x9;&#x9;c0,0.28-0.23,0.51-0.51,0.51h-2.9c-0.28,0-0.51-0.23-0.51-0.51V20.19c0-0.28,0.23-0.51,0.51-0.51h4.31c0.2,0,0.37,0.11,0.46,0.29&#xA;&#x9;&#x9;l7.4,15.64c0.09,0.18,0.26,0.29,0.46,0.29c0.2,0,0.37-0.11,0.46-0.29l7.33-15.64c0.08-0.18,0.26-0.29,0.46-0.29h4.31&#xA;&#x9;&#x9;c0.28,0,0.51,0.23,0.51,0.51v21.93c0,0.28-0.23,0.51-0.51,0.51H91.8c-0.14,0-0.26-0.05-0.36-0.15c-0.1-0.1-0.15-0.22-0.15-0.36&#xA;&#x9;&#x9;l0.01-14.37c0-0.24-0.16-0.44-0.39-0.5c-0.23-0.05-0.47,0.06-0.57,0.27l-7.2,14.82c-0.09,0.18-0.26,0.29-0.46,0.29h-1.4&#xA;&#x9;&#x9;C81.09,42.62,80.92,42.52,80.84,42.33"></path>
&#x9;<path class="st1" d="M30.81,20.68c-0.39-0.07-1.61-0.16-2-0.19l0-0.1c4.29-0.03,7.33-0.13,10.11,0.9c0.06,0.02,0.48,0.21,0.58,0.26&#xA;&#x9;&#x9;c0.35,0.18,0.8,0.42,1.23,0.68c0.71,0.45,1.42,1.08,1.58,1.24c1.46,1.5,2.74,4.32,3.72,6.72c0.01,0.01,0.81,2.08,1.31,3.35&#xA;&#x9;&#x9;c0.05,0.12,0.22,0.51,0.38,0.87c0.13,0.29,0.56,1.07,0.7,1.25c0.48,0.66,1.11,1.24,1.96,1.6c0.15,0.06,0.35,0.12,0.57,0.18&#xA;&#x9;&#x9;c0.9-2.46,1.4-5.11,1.4-7.88c0-12.6-10.21-22.81-22.81-22.81c-9.33,0-17.36,5.61-20.89,13.64c1.77,0.01,4.5,0.04,5.87,0.17&#xA;&#x9;&#x9;c0.37,0.04,0.73,0.09,1.08,0.15c1.98,0.36,3.71,1.18,5.01,2.3c1.43,1.23,2.21,2.83,3.1,4.59c1.81,3.61,3.14,7.77,4.14,11.02h-5.88&#xA;&#x9;&#x9;c-0.08-0.17-2.51-8.1-4.23-11.28c-1.63-3.24-3.97-5.89-8.03-6.63c-0.23-0.04-0.68-0.08-1.16-0.11c-1.18,2.75-1.83,5.78-1.83,8.97&#xA;&#x9;&#x9;c0,12.6,10.21,22.81,22.81,22.81c9.38,0,17.43-5.66,20.93-13.74l-7.17-0.01C41,32.74,39.46,22.27,30.81,20.68 M38.54,38.63h-5.88&#xA;&#x9;&#x9;c-0.08-0.17-2.51-8.1-4.23-11.28c-1.63-3.24-3.97-5.89-8.03-6.63c-0.7-0.12-1.38-0.18-2.08-0.23l0-0.1&#xA;&#x9;&#x9;c2.25-0.02,4.67-0.03,6.9,0.17c0.37,0.04,0.73,0.09,1.08,0.15c1.98,0.36,3.72,1.18,5.01,2.3c1.43,1.23,2.21,2.83,3.09,4.59&#xA;&#x9;&#x9;C36.21,31.22,37.53,35.38,38.54,38.63z M58.2,29.57c0,15.83-12.83,28.66-28.66,28.66c-15.83,0-28.66-12.83-28.66-28.66&#xA;&#x9;&#x9;c0-15.83,12.83-28.67,28.66-28.67C45.36,0.91,58.2,13.74,58.2,29.57z"></path>
</g>
</svg>
